<?xml version="1.0" encoding="iso-8859-1"?>
<!-- Generator: Adobe Illustrator 19.0.0, SVG Export Plug-In . SVG Version: 6.00 Build 0)  -->
<svg version="1.1" id="Layer_1" xmlns="http://www.w3.org/2000/svg" xmlns:xlink="http://www.w3.org/1999/xlink" x="0px" y="0px"
	 viewBox="0 0 512 512" style="enable-background:new 0 0 512 512;" xml:space="preserve">
<path style="fill:#736056;" d="M317.217,283.826H128c-9.223,0-16.696,7.473-16.696,16.696s7.473,16.696,16.696,16.696h54.304
	l-77.913,77.913h-71v-50.087c0-9.223-7.473-16.696-16.696-16.696S0,335.821,0,345.043v133.565c0,9.223,7.473,16.696,16.696,16.696
	s16.696-7.473,16.696-16.696v-50.087h77.913c4.429,0,8.674-1.761,11.804-4.892l106.414-106.413h87.696
	c9.223,0,16.696-7.473,16.696-16.696S326.44,283.826,317.217,283.826z"/>
<g>
	<path style="fill:#665247;" d="M317.217,283.826H256v33.391h61.217c9.223,0,16.696-7.473,16.696-16.696
		S326.44,283.826,317.217,283.826z"/>
	<path style="fill:#665247;" d="M445.217,217.043h-74.354c-5.201,0-10.109-2.424-13.266-6.56c-3.158-4.136-4.212-9.505-2.843-14.527
		l24.267-89.043c1.467-5.386,5.533-9.679,10.831-11.445l66.783-22.261c5.077-1.706,10.685-0.848,15.038,2.294
		c4.354,3.135,6.935,8.18,6.935,13.544v94.609C478.609,202.065,463.63,217.043,445.217,217.043z"/>
</g>
<path style="fill:#D7EBFF;" d="M348.94,250.435H50.087C22.468,250.435,0,227.967,0,200.348V66.783
	c0-27.619,22.468-50.087,50.087-50.087h428.522c18.413,0,33.391,14.978,33.391,33.391v27.826c0,7.185-4.598,13.566-11.419,15.838
	l-91.69,30.565l-27.717,101.5C377.228,240.294,363.973,250.435,348.94,250.435z"/>
<path style="fill:#BDDEFF;" d="M478.609,16.696H256v233.739h92.94c15.033,0,28.288-10.141,32.234-24.619l27.717-101.5l91.69-30.565
	C507.402,91.479,512,85.098,512,77.913V50.087C512,31.674,497.022,16.696,478.609,16.696z"/>
<g>
	<path style="fill:#B7C4CC;" d="M183.652,116.87H50.087c-9.223,0-16.696-7.473-16.696-16.696s7.473-16.696,16.696-16.696h133.565
		c9.223,0,16.696,7.473,16.696,16.696S192.875,116.87,183.652,116.87z"/>
	<path style="fill:#B7C4CC;" d="M116.87,183.652H50.087c-9.223,0-16.696-7.473-16.696-16.696s7.473-16.696,16.696-16.696h66.783
		c9.223,0,16.696,7.473,16.696,16.696S126.092,183.652,116.87,183.652z"/>
</g>
<circle style="fill:#7FB335;" cx="306.087" cy="166.957" r="16.696"/>
<g>
</g>
<g>
</g>
<g>
</g>
<g>
</g>
<g>
</g>
<g>
</g>
<g>
</g>
<g>
</g>
<g>
</g>
<g>
</g>
<g>
</g>
<g>
</g>
<g>
</g>
<g>
</g>
<g>
</g>
</svg>
